<svg width="37" height="37" viewBox="0 0 37 37" fill="none" xmlns="http://www.w3.org/2000/svg">
<path opacity="0.25" fill-rule="evenodd" clip-rule="evenodd" d="M18.5 36C28.165 36 36 28.165 36 18.5C36 8.83502 28.165 1 18.5 1C8.83502 1 1 8.83502 1 18.5C1 28.165 8.83502 36 18.5 36Z" stroke="white" stroke-width="1.5"/>
<path d="M20.0933 14.0208H21.7017C21.8497 14.0208 21.9698 13.9076 21.9698 13.7682V12.2526C21.9698 12.1132 21.8497 12 21.7017 12H20.0933C18.4678 12 17.1446 13.2463 17.1446 14.7786V16.5468H15.2682C15.1202 16.5468 15.0001 16.6599 15.0001 16.7994V18.3149C15.0001 18.4544 15.1202 18.5675 15.2682 18.5675H17.1446V23.8721C17.1446 24.0115 17.2647 24.1247 17.4127 24.1247H19.0211C19.169 24.1247 19.2891 24.0115 19.2891 23.8721V18.5675H21.1656C21.2808 18.5675 21.3832 18.4978 21.4202 18.3948L21.9564 16.8792C21.9837 16.8024 21.9698 16.7175 21.9194 16.6513C21.8684 16.5857 21.788 16.5468 21.7017 16.5468H19.2891V14.7786C19.2891 14.3608 19.6499 14.0208 20.0933 14.0208Z" fill="white"/>
</svg>
