<svg width="712" height="755" viewBox="0 0 712 755" fill="none" xmlns="http://www.w3.org/2000/svg">
<g opacity="0.7">
<path opacity="0.333333" fill-rule="evenodd" clip-rule="evenodd" d="M388.648 542.024C367.918 559.554 334.049 554.757 308.715 546.194C284.753 538.095 274.94 511.268 254.646 496.731C233.66 481.697 203.079 480.039 187.783 459.562C171.386 437.614 166.485 408.782 168.418 381.303C170.442 352.538 172.164 314.184 198.949 300.83C229.89 285.403 265.331 326.364 298.456 316.47C326.575 308.071 328.48 248.222 356.926 253.642C386.474 259.272 363.223 317.932 388.324 333.593C417.517 351.807 466.483 315.177 491.997 337.917C513.029 356.662 502.115 396.807 486.121 420.756C470.236 444.542 428.219 437.972 410.233 460.348C391.948 483.097 411.084 523.052 388.648 542.024Z" stroke="url(#paint0_linear_602_174)" stroke-opacity="0.2" stroke-width="1.72076"/>
<path opacity="0.0833333" fill-rule="evenodd" clip-rule="evenodd" d="M422.665 591.818C409.276 615.907 375.571 623.906 348.6 625.223C323.088 626.469 304.324 604.931 280.002 598.785C254.851 592.43 225.364 602.159 203.663 588.6C180.403 574.066 165.571 548.835 157.676 522.352C149.412 494.628 137.471 458.024 158.06 435.616C181.843 409.732 229.828 435.069 257.632 413.567C281.235 395.314 261.862 338.484 290.662 333.07C320.579 327.447 319.358 391.039 348.619 396.465C382.653 402.775 415.968 350.354 448.126 362.266C474.634 372.085 478.522 413.761 471.88 442.122C465.282 470.291 423.25 479.633 414.169 507.255C404.936 535.337 437.156 565.747 422.665 591.818Z" stroke="url(#paint1_linear_602_174)" stroke-opacity="0.2" stroke-width="1.72076"/>
<path opacity="0.166667" fill-rule="evenodd" clip-rule="evenodd" d="M408.981 576.443C392.873 598.636 358.58 602.37 331.742 600.324C306.356 598.388 290.353 574.727 267.022 565.619C242.896 556.2 212.57 562.171 192.714 546.047C171.43 528.764 159.755 501.934 155.093 474.725C150.212 446.242 142.748 408.507 165.778 388.874C192.382 366.194 236.841 397.248 266.902 379.408C292.42 364.263 280.008 305.574 309.142 303.791C339.405 301.939 330.641 364.766 358.944 373.775C391.862 384.252 431.049 336.476 461.446 352.268C486.503 365.286 485.396 407.043 475.455 434.306C465.581 461.383 422.89 465.413 410.624 491.64C398.154 518.304 426.414 552.423 408.981 576.443Z" stroke="url(#paint2_linear_602_174)" stroke-opacity="0.2" stroke-width="1.72076"/>
<path opacity="0.25" fill-rule="evenodd" clip-rule="evenodd" d="M397.598 559.746C379.033 579.741 344.685 579.187 318.397 573.83C293.531 568.763 280.527 543.331 258.546 531.411C235.816 519.084 205.124 521.241 187.414 502.799C168.43 483.031 160.082 454.995 158.711 427.453C157.276 398.622 154.389 360.301 179.493 343.701C208.493 324.526 248.749 360.815 280.591 346.864C307.62 335.021 302.336 275.322 331.349 277.169C361.489 279.087 345.346 340.261 372.254 352.698C403.55 367.165 447.977 324.68 476.148 344.1C499.369 360.108 493.305 401.352 480.233 427.135C467.249 452.744 424.564 451.442 409.317 475.911C393.815 500.788 417.692 538.105 397.598 559.746Z" stroke="url(#paint3_linear_602_174)" stroke-opacity="0.2" stroke-width="1.72076"/>
<path opacity="0.416667" fill-rule="evenodd" clip-rule="evenodd" d="M382.223 523.588C359.651 538.423 326.78 529.492 302.789 517.876C280.097 506.889 273.622 479.068 255.324 462.146C236.402 444.647 206.402 439.235 193.75 417.037C180.19 393.244 178.805 364.039 184.008 337.018C189.453 308.732 195.751 270.896 223.802 260.948C256.205 249.457 286.294 294.457 320.192 288.723C348.966 283.855 358.02 224.719 385.461 233.6C413.966 242.826 383.974 298.152 406.884 316.78C433.53 338.446 486.274 308.141 508.744 333.843C527.267 355.029 511.677 393.509 493.013 415.296C474.475 436.935 433.771 425.241 413.328 445.223C392.545 465.537 406.652 507.531 382.223 523.588Z" stroke="url(#paint4_linear_602_174)" stroke-opacity="0.2" stroke-width="1.72076"/>
<path opacity="0.5" fill-rule="evenodd" clip-rule="evenodd" d="M378.378 504.753C354.309 516.707 322.937 503.814 300.653 489.346C279.576 475.66 276.535 447.258 260.511 428.222C243.94 408.537 214.977 399.488 205.162 375.909C194.642 350.635 196.793 321.483 205.182 295.307C213.965 267.905 224.738 231.131 253.627 224.698C286.998 217.268 311.28 265.613 345.432 264.079C374.423 262.776 390.483 205.203 416.501 217.38C443.528 230.03 407.259 281.257 427.63 302.551C451.324 327.318 507.039 303.712 526.125 331.972C541.858 355.268 521.834 391.541 500.786 410.873C479.88 430.074 441.108 413.478 418.521 430.801C395.558 448.412 404.427 491.814 378.378 504.753Z" stroke="url(#paint5_linear_602_174)" stroke-opacity="0.2" stroke-width="1.72076"/>
<path opacity="0.583333" fill-rule="evenodd" clip-rule="evenodd" d="M377.127 485.839C351.925 494.77 322.524 478.147 302.285 461.069C283.14 444.915 283.578 416.355 270.069 395.507C256.098 373.948 228.611 361.434 221.779 336.834C214.457 310.466 220.11 281.794 231.56 256.836C243.546 230.71 258.632 195.524 287.922 192.662C321.756 189.357 339.866 240.302 373.757 242.944C402.526 245.187 425.349 190.002 449.552 205.261C474.693 221.112 432.695 267.533 450.221 291.153C470.606 318.625 528.452 301.989 543.866 332.366C556.572 357.406 532.417 390.967 509.303 407.588C486.345 424.096 450.09 402.896 425.7 417.335C400.905 432.014 404.402 476.174 377.127 485.839Z" stroke="url(#paint6_linear_602_174)" stroke-opacity="0.2" stroke-width="1.72076"/>
<path opacity="0.666667" fill-rule="evenodd" clip-rule="evenodd" d="M378.446 467.163C352.487 472.972 325.497 452.908 307.603 433.503C290.677 415.148 294.588 386.853 283.795 364.523C272.634 341.43 247.031 325.676 243.285 300.431C239.27 273.372 248.341 245.599 262.681 222.215C277.691 197.736 296.864 164.642 326.118 165.353C359.911 166.175 371.578 218.937 404.703 225.668C432.821 231.382 462.065 179.376 484.092 197.456C506.973 216.238 459.872 257.221 474.292 282.79C491.063 312.529 550.176 303.03 561.687 335.05C571.177 361.445 543.252 391.827 518.417 405.522C493.75 419.123 460.553 393.685 434.725 405.059C408.468 416.623 406.54 460.877 378.446 467.163Z" stroke="url(#paint7_linear_602_174)" stroke-opacity="0.2" stroke-width="1.72076"/>
<path opacity="0.75" fill-rule="evenodd" clip-rule="evenodd" d="M382.272 449.036C355.94 451.67 331.758 428.505 316.473 407.09C302.016 386.834 309.341 359.226 301.423 335.763C293.236 311.5 269.895 292.78 269.29 267.275C268.642 239.937 280.996 213.468 298.013 191.991C315.826 169.508 338.803 138.976 367.589 143.209C400.841 148.099 405.895 201.867 437.764 212.541C464.817 221.602 500.05 173.516 519.575 194.114C539.859 215.512 488.351 250.505 499.452 277.619C512.363 309.153 571.869 306.854 579.31 340.019C585.443 367.357 554.161 394.142 527.972 404.738C501.96 415.262 472.31 386.015 445.425 394.189C418.093 402.499 410.771 446.185 382.272 449.036Z" stroke="url(#paint8_linear_602_174)" stroke-opacity="0.2" stroke-width="1.72076"/>
<path opacity="0.833333" fill-rule="evenodd" clip-rule="evenodd" d="M388.506 431.754C362.185 431.21 341.162 405.327 328.709 382.249C316.929 360.419 327.56 333.908 322.631 309.681C317.534 284.629 296.796 263.257 299.338 237.881C302.063 210.681 317.519 185.904 336.963 166.637C357.318 146.468 383.761 118.934 411.659 126.586C443.886 135.424 442.256 189.373 472.406 203.785C497.999 216.018 538.703 172.538 555.444 195.316C572.835 218.977 517.675 247.516 525.297 275.746C534.161 308.58 593.193 313.435 596.456 347.23C599.146 375.087 564.964 397.909 537.804 405.28C510.828 412.602 485.156 380.03 457.607 384.915C429.6 389.881 416.993 432.343 388.506 431.754Z" stroke="url(#paint9_linear_602_174)" stroke-opacity="0.2" stroke-width="1.72076"/>
<path opacity="0.916667" fill-rule="evenodd" clip-rule="evenodd" d="M397.012 415.601C371.083 411.919 353.519 383.743 344.072 359.371C335.137 336.318 348.915 311.298 347.043 286.686C345.107 261.234 327.266 237.565 332.915 212.706C338.97 186.059 357.299 163.334 378.887 146.55C401.485 128.98 431.007 104.832 457.616 115.75C488.354 128.362 480.073 181.665 508.069 199.555C531.835 214.742 577.415 176.484 591.134 201.07C605.385 226.609 547.375 248.324 551.412 277.228C556.107 310.845 613.813 322.707 612.857 356.608C612.069 384.553 575.486 403.103 547.748 407.171C520.198 411.211 498.87 375.847 471.056 377.402C442.779 378.983 425.076 419.585 397.012 415.601Z" stroke="url(#paint10_linear_602_174)" stroke-opacity="0.2" stroke-width="1.72076"/>
<path fill-rule="evenodd" clip-rule="evenodd" d="M407.624 400.837C382.456 394.103 368.595 364.091 362.283 338.814C356.313 314.904 373.034 291.747 374.238 267.132C375.482 241.679 360.788 216.1 369.455 192.134C378.745 166.447 399.679 146.105 423.095 132.039C447.607 117.315 479.779 96.8951 504.721 110.88C533.532 127.036 518.735 178.876 544.183 199.936C565.785 217.813 615.576 185.32 626.083 211.318C636.998 238.323 576.975 252.944 577.378 282.069C577.847 315.943 633.403 334.563 628.252 368.047C624.006 395.648 585.551 409.681 557.634 410.412C529.908 411.139 513.217 373.555 485.537 371.788C457.397 369.991 434.864 408.124 407.624 400.837Z" stroke="url(#paint11_linear_602_174)" stroke-opacity="0.2" stroke-width="1.72076"/>
</g>
<defs>
<linearGradient id="paint0_linear_602_174" x1="602.833" y1="540.861" x2="214.257" y2="179.187" gradientUnits="userSpaceOnUse">
<stop stop-color="#1681FE"/>
<stop offset="1" stop-color="#04B4FC"/>
</linearGradient>
<linearGradient id="paint1_linear_602_174" x1="624.669" y1="511.695" x2="132.097" y2="309.54" gradientUnits="userSpaceOnUse">
<stop stop-color="#1681FE"/>
<stop offset="1" stop-color="#04B4FC"/>
</linearGradient>
<linearGradient id="paint2_linear_602_174" x1="618.337" y1="522.19" x2="153.979" y2="262.75" gradientUnits="userSpaceOnUse">
<stop stop-color="#1681FE"/>
<stop offset="1" stop-color="#04B4FC"/>
</linearGradient>
<linearGradient id="paint3_linear_602_174" x1="611.025" y1="531.95" x2="181.506" y2="219.084" gradientUnits="userSpaceOnUse">
<stop stop-color="#1681FE"/>
<stop offset="1" stop-color="#04B4FC"/>
</linearGradient>
<linearGradient id="paint4_linear_602_174" x1="593.871" y1="548.821" x2="251.738" y2="143.649" gradientUnits="userSpaceOnUse">
<stop stop-color="#1681FE"/>
<stop offset="1" stop-color="#04B4FC"/>
</linearGradient>
<linearGradient id="paint5_linear_602_174" x1="584.265" y1="555.743" x2="293.39" y2="112.997" gradientUnits="userSpaceOnUse">
<stop stop-color="#1681FE"/>
<stop offset="1" stop-color="#04B4FC"/>
</linearGradient>
<linearGradient id="paint6_linear_602_174" x1="574.147" y1="561.557" x2="338.595" y2="87.686" gradientUnits="userSpaceOnUse">
<stop stop-color="#1681FE"/>
<stop offset="1" stop-color="#04B4FC"/>
</linearGradient>
<linearGradient id="paint7_linear_602_174" x1="563.658" y1="566.206" x2="386.687" y2="68.0929" gradientUnits="userSpaceOnUse">
<stop stop-color="#1681FE"/>
<stop offset="1" stop-color="#04B4FC"/>
</linearGradient>
<linearGradient id="paint8_linear_602_174" x1="552.944" y1="569.657" x2="436.959" y2="54.5131" gradientUnits="userSpaceOnUse">
<stop stop-color="#1681FE"/>
<stop offset="1" stop-color="#04B4FC"/>
</linearGradient>
<linearGradient id="paint9_linear_602_174" x1="542.156" y1="571.889" x2="488.678" y2="47.1537" gradientUnits="userSpaceOnUse">
<stop stop-color="#1681FE"/>
<stop offset="1" stop-color="#04B4FC"/>
</linearGradient>
<linearGradient id="paint10_linear_602_174" x1="531.444" y1="572.905" x2="541.09" y2="46.1334" gradientUnits="userSpaceOnUse">
<stop stop-color="#1681FE"/>
<stop offset="1" stop-color="#04B4FC"/>
</linearGradient>
<linearGradient id="paint11_linear_602_174" x1="520.959" y1="572.723" x2="593.435" y2="51.48" gradientUnits="userSpaceOnUse">
<stop stop-color="#1681FE"/>
<stop offset="1" stop-color="#04B4FC"/>
</linearGradient>
</defs>
</svg>
