<svg width="422" height="421" viewBox="0 0 422 421" fill="none" xmlns="http://www.w3.org/2000/svg">
<g opacity="0.7">
<path opacity="0.0833333" fill-rule="evenodd" clip-rule="evenodd" d="M288.903 591.818C302.292 615.907 335.997 623.906 362.968 625.223C388.479 626.469 407.243 604.931 431.565 598.786C456.717 592.43 486.204 602.159 507.904 588.6C531.164 574.066 545.997 548.835 553.891 522.352C562.155 494.628 574.097 458.024 553.508 435.616C529.725 409.732 481.74 435.069 453.935 413.567C430.333 395.314 449.706 338.484 420.906 333.071C390.989 327.447 392.21 391.039 362.948 396.465C328.915 402.775 295.599 350.354 263.441 362.266C236.933 372.085 233.046 413.761 239.688 442.123C246.285 470.291 288.318 479.633 297.399 507.255C306.631 535.337 274.412 565.747 288.903 591.818Z" stroke="url(#paint0_linear_407_29)" stroke-opacity="0.2" stroke-width="1.72076"/>
<path opacity="0.166667" fill-rule="evenodd" clip-rule="evenodd" d="M302.587 576.443C318.694 598.636 352.988 602.37 379.826 600.323C405.211 598.388 421.215 574.727 444.545 565.619C468.671 556.2 498.998 562.171 518.854 546.047C540.137 528.763 551.812 501.933 556.475 474.725C561.356 446.242 568.82 408.507 545.789 388.873C519.186 366.194 474.727 397.248 444.666 379.407C419.148 364.263 431.56 305.574 402.426 303.791C372.162 301.939 380.926 364.766 352.624 373.774C319.705 384.252 280.519 336.476 250.122 352.268C225.065 365.286 226.171 407.043 236.112 434.305C245.986 461.383 288.677 465.412 300.943 491.64C313.413 518.303 285.153 552.423 302.587 576.443Z" stroke="url(#paint1_linear_407_29)" stroke-opacity="0.2" stroke-width="1.72076"/>
<path opacity="0.25" fill-rule="evenodd" clip-rule="evenodd" d="M313.969 559.746C332.535 579.74 366.882 579.187 393.17 573.83C418.036 568.763 431.041 543.331 453.021 531.411C475.751 519.084 506.443 521.24 524.154 502.799C543.137 483.031 551.485 454.995 552.857 427.453C554.292 398.622 557.179 360.301 532.074 343.701C503.074 324.526 462.819 360.815 430.977 346.864C403.947 335.021 409.232 275.322 380.218 277.169C350.079 279.087 366.221 340.261 339.313 352.698C308.018 367.164 263.591 324.68 235.42 344.1C212.198 360.108 218.262 401.352 231.335 427.135C244.319 452.744 287.003 451.442 302.251 475.911C317.752 500.788 293.876 538.105 313.969 559.746Z" stroke="url(#paint2_linear_407_29)" stroke-opacity="0.2" stroke-width="1.72076"/>
<path opacity="0.333333" fill-rule="evenodd" clip-rule="evenodd" d="M322.92 542.024C343.65 559.554 377.519 554.757 402.852 546.194C426.815 538.094 436.628 511.268 456.921 496.73C477.907 481.697 508.488 480.038 523.785 459.562C540.181 437.614 545.082 408.782 543.149 381.303C541.126 352.538 539.404 314.184 512.619 300.83C481.678 285.403 446.237 326.364 413.112 316.47C384.992 308.071 383.087 248.222 354.642 253.642C325.093 259.272 348.344 317.932 323.244 333.592C294.05 351.807 245.085 315.177 219.57 337.917C198.538 356.662 209.453 396.807 225.447 420.755C241.332 444.542 283.349 437.971 301.334 460.348C319.62 483.097 300.484 523.052 322.92 542.024Z" stroke="url(#paint3_linear_407_29)" stroke-opacity="0.2" stroke-width="1.72076"/>
<path opacity="0.416667" fill-rule="evenodd" clip-rule="evenodd" d="M329.345 523.588C351.917 538.423 384.788 529.492 408.778 517.876C431.471 506.889 437.946 479.068 456.244 462.146C475.166 444.647 505.166 439.235 517.817 417.037C531.378 393.244 532.762 364.039 527.56 337.018C522.114 308.732 515.817 270.896 487.766 260.948C455.362 249.457 425.273 294.457 391.376 288.723C362.601 283.855 353.547 224.719 326.107 233.6C297.602 242.826 327.593 298.152 304.683 316.78C278.038 338.446 225.294 308.141 202.823 333.843C184.301 355.029 199.89 393.509 218.555 415.296C237.092 436.935 277.797 425.241 298.24 445.223C319.023 465.537 304.915 507.531 329.345 523.588Z" stroke="url(#paint4_linear_407_29)" stroke-opacity="0.2" stroke-width="1.72076"/>
<path opacity="0.5" fill-rule="evenodd" clip-rule="evenodd" d="M333.19 504.753C357.258 516.707 388.631 503.814 410.914 489.346C431.991 475.66 435.032 447.258 451.057 428.222C467.628 408.537 496.59 399.488 506.405 375.909C516.926 350.635 514.775 321.483 506.385 295.307C497.603 267.905 486.829 231.131 457.941 224.698C424.57 217.268 400.288 265.613 366.136 264.079C337.145 262.776 321.085 205.203 295.067 217.38C268.04 230.03 304.309 281.257 283.937 302.551C260.244 327.318 204.528 303.712 185.442 331.972C169.71 355.268 189.733 391.541 210.782 410.873C231.687 430.074 270.46 413.478 293.047 430.801C316.009 448.412 307.141 491.814 333.19 504.753Z" stroke="url(#paint5_linear_407_29)" stroke-opacity="0.2" stroke-width="1.72076"/>
<path opacity="0.583333" fill-rule="evenodd" clip-rule="evenodd" d="M334.441 485.839C359.642 494.77 389.043 478.147 409.283 461.069C428.427 444.916 427.989 416.355 441.499 395.507C455.469 373.948 482.957 361.434 489.788 336.834C497.111 310.466 491.458 281.794 480.008 256.836C468.021 230.71 452.936 195.524 423.646 192.663C389.812 189.357 371.702 240.303 337.811 242.944C309.041 245.187 286.219 190.002 262.016 205.261C236.874 221.112 278.872 267.533 261.346 291.153C240.962 318.625 183.116 301.989 167.702 332.366C154.996 357.406 179.15 390.967 202.265 407.588C225.222 424.096 261.478 402.896 285.867 417.335C310.662 432.014 307.165 476.174 334.441 485.839Z" stroke="url(#paint6_linear_407_29)" stroke-opacity="0.2" stroke-width="1.72076"/>
<path opacity="0.666667" fill-rule="evenodd" clip-rule="evenodd" d="M333.122 467.164C359.08 472.972 386.071 452.908 403.965 433.503C420.89 415.148 416.979 386.853 427.773 364.523C438.934 341.43 464.537 325.676 468.282 300.431C472.297 273.372 463.226 245.599 448.887 222.215C433.876 197.737 414.703 164.642 385.45 165.353C351.657 166.175 339.989 218.937 306.865 225.668C278.746 231.383 249.503 179.376 227.476 197.456C204.595 216.238 251.695 257.221 237.276 282.79C220.505 312.529 161.392 303.03 149.88 335.05C140.391 361.445 168.316 391.827 193.151 405.522C217.817 419.123 251.015 393.685 276.843 405.059C303.1 416.623 305.027 460.877 333.122 467.164Z" stroke="url(#paint7_linear_407_29)" stroke-opacity="0.2" stroke-width="1.72076"/>
<path opacity="0.75" fill-rule="evenodd" clip-rule="evenodd" d="M329.296 449.036C355.628 451.671 379.81 428.505 395.094 407.09C409.552 386.834 402.226 359.226 410.144 335.763C418.332 311.501 441.672 292.78 442.277 267.275C442.926 239.937 430.572 213.468 413.555 191.991C395.742 169.508 372.765 138.977 343.979 143.21C310.727 148.099 305.673 201.867 273.804 212.541C246.751 221.602 211.518 173.516 191.992 194.115C171.709 215.512 223.216 250.505 212.116 277.619C199.205 309.154 139.698 306.855 132.258 340.019C126.124 367.357 157.407 394.142 183.596 404.738C209.607 415.262 239.258 386.015 266.142 394.189C293.474 402.499 300.797 446.185 329.296 449.036Z" stroke="url(#paint8_linear_407_29)" stroke-opacity="0.2" stroke-width="1.72076"/>
<path opacity="0.833333" fill-rule="evenodd" clip-rule="evenodd" d="M323.062 431.754C349.383 431.21 370.405 405.327 382.859 382.249C394.639 360.419 384.008 333.908 388.936 309.681C394.033 284.628 414.772 263.256 412.229 237.881C409.504 210.681 394.049 185.903 374.604 166.637C354.25 146.468 327.807 118.934 299.909 126.585C267.682 135.424 269.311 189.373 239.162 203.784C213.569 216.018 172.865 172.538 156.123 195.315C138.733 218.976 193.892 247.515 186.271 275.746C177.407 308.579 118.374 313.435 115.111 347.229C112.421 375.087 146.603 397.908 173.764 405.28C200.739 412.601 226.412 380.029 253.961 384.914C281.967 389.881 294.575 432.343 323.062 431.754Z" stroke="url(#paint9_linear_407_29)" stroke-opacity="0.2" stroke-width="1.72076"/>
<path opacity="0.916667" fill-rule="evenodd" clip-rule="evenodd" d="M314.555 415.6C340.485 411.919 358.048 383.743 367.495 359.371C376.431 336.318 362.652 311.297 364.524 286.685C366.461 261.234 384.301 237.565 378.652 212.705C372.597 186.059 354.268 163.334 332.681 146.55C310.083 128.98 280.56 104.832 253.951 115.75C223.214 128.362 231.494 181.665 203.498 199.555C179.732 214.741 134.153 176.484 120.434 201.07C106.183 226.609 164.192 248.324 160.156 277.228C155.461 310.845 97.7548 322.707 98.7107 356.608C99.4987 384.553 136.082 403.103 163.82 407.171C191.369 411.211 212.698 375.847 240.512 377.402C268.788 378.983 286.491 419.585 314.555 415.6Z" stroke="url(#paint10_linear_407_29)" stroke-opacity="0.2" stroke-width="1.72076"/>
<path fill-rule="evenodd" clip-rule="evenodd" d="M303.943 400.837C329.112 394.103 342.972 364.091 349.284 338.814C355.255 314.904 338.533 291.747 337.33 267.132C336.085 241.679 350.78 216.1 342.113 192.134C332.822 166.447 311.889 146.105 288.473 132.039C263.96 117.315 231.789 96.8951 206.847 110.88C178.035 127.036 192.832 178.876 167.385 199.936C145.783 217.813 95.9917 185.32 85.4844 211.318C74.5696 238.323 134.592 252.944 134.189 282.069C133.72 315.943 78.1645 334.563 83.3156 368.047C87.5617 395.648 126.017 409.681 153.933 410.412C181.66 411.139 198.35 373.555 226.031 371.788C254.171 369.991 276.704 408.124 303.943 400.837Z" stroke="url(#paint11_linear_407_29)" stroke-opacity="0.2" stroke-width="1.72076"/>
</g>
<defs>
<linearGradient id="paint0_linear_407_29" x1="86.8984" y1="511.695" x2="579.471" y2="309.54" gradientUnits="userSpaceOnUse">
<stop stop-color="#1681FE"/>
<stop offset="1" stop-color="#04B4FC"/>
</linearGradient>
<linearGradient id="paint1_linear_407_29" x1="93.2308" y1="522.189" x2="557.589" y2="262.75" gradientUnits="userSpaceOnUse">
<stop stop-color="#1681FE"/>
<stop offset="1" stop-color="#04B4FC"/>
</linearGradient>
<linearGradient id="paint2_linear_407_29" x1="100.543" y1="531.95" x2="530.062" y2="219.084" gradientUnits="userSpaceOnUse">
<stop stop-color="#1681FE"/>
<stop offset="1" stop-color="#04B4FC"/>
</linearGradient>
<linearGradient id="paint3_linear_407_29" x1="108.735" y1="540.861" x2="497.311" y2="179.187" gradientUnits="userSpaceOnUse">
<stop stop-color="#1681FE"/>
<stop offset="1" stop-color="#04B4FC"/>
</linearGradient>
<linearGradient id="paint4_linear_407_29" x1="117.696" y1="548.821" x2="459.83" y2="143.649" gradientUnits="userSpaceOnUse">
<stop stop-color="#1681FE"/>
<stop offset="1" stop-color="#04B4FC"/>
</linearGradient>
<linearGradient id="paint5_linear_407_29" x1="127.302" y1="555.743" x2="418.177" y2="112.997" gradientUnits="userSpaceOnUse">
<stop stop-color="#1681FE"/>
<stop offset="1" stop-color="#04B4FC"/>
</linearGradient>
<linearGradient id="paint6_linear_407_29" x1="137.421" y1="561.557" x2="372.972" y2="87.6861" gradientUnits="userSpaceOnUse">
<stop stop-color="#1681FE"/>
<stop offset="1" stop-color="#04B4FC"/>
</linearGradient>
<linearGradient id="paint7_linear_407_29" x1="147.91" y1="566.207" x2="324.881" y2="68.093" gradientUnits="userSpaceOnUse">
<stop stop-color="#1681FE"/>
<stop offset="1" stop-color="#04B4FC"/>
</linearGradient>
<linearGradient id="paint8_linear_407_29" x1="158.624" y1="569.657" x2="274.609" y2="54.5134" gradientUnits="userSpaceOnUse">
<stop stop-color="#1681FE"/>
<stop offset="1" stop-color="#04B4FC"/>
</linearGradient>
<linearGradient id="paint9_linear_407_29" x1="169.412" y1="571.889" x2="222.89" y2="47.1534" gradientUnits="userSpaceOnUse">
<stop stop-color="#1681FE"/>
<stop offset="1" stop-color="#04B4FC"/>
</linearGradient>
<linearGradient id="paint10_linear_407_29" x1="180.123" y1="572.905" x2="170.478" y2="46.1333" gradientUnits="userSpaceOnUse">
<stop stop-color="#1681FE"/>
<stop offset="1" stop-color="#04B4FC"/>
</linearGradient>
<linearGradient id="paint11_linear_407_29" x1="190.609" y1="572.723" x2="118.133" y2="51.48" gradientUnits="userSpaceOnUse">
<stop stop-color="#1681FE"/>
<stop offset="1" stop-color="#04B4FC"/>
</linearGradient>
</defs>
</svg>
