<svg width="72" height="73" viewBox="0 0 72 73" fill="none" xmlns="http://www.w3.org/2000/svg">
<rect y="0.800537" width="72" height="72" rx="12" fill="black"/>
<path d="M43.3334 55.1833V49.9217C43.4021 49.0475 43.284 48.1686 42.9869 47.3436C42.6898 46.5186 42.2204 45.7663 41.61 45.1367C47.3667 44.495 53.4167 42.3133 53.4167 32.3033C53.4162 29.7437 52.4316 27.2822 50.6667 25.4283C51.5024 23.1889 51.4433 20.7136 50.5017 18.5167C50.5017 18.5167 48.3384 17.875 43.3334 21.23C39.1312 20.0929 34.7023 20.0929 30.5 21.23C25.495 17.875 23.3317 18.5167 23.3317 18.5167C22.3901 20.7136 22.331 23.1889 23.1667 25.4283C21.3886 27.2959 20.403 29.7797 20.4167 32.3583C20.4167 42.295 26.4667 44.4766 32.2234 45.1916C31.6202 45.8149 31.155 46.5582 30.8581 47.3732C30.5612 48.1881 30.4392 49.0564 30.5 49.9217V55.1833" stroke="white" stroke-width="1.5" stroke-linecap="round" stroke-linejoin="round"/>
<path d="M30.5 51.5166C25 53.3004 20.4167 51.5166 17.6667 46.0166" stroke="white" stroke-width="1.5" stroke-linecap="round" stroke-linejoin="round"/>
</svg>
