<svg width="72" height="73" viewBox="0 0 72 73" fill="none" xmlns="http://www.w3.org/2000/svg">
<rect y="0.800537" width="72" height="72" rx="12" fill="black"/>
<path d="M23.3689 42.5477C23.3689 45.0674 21.314 47.1254 18.7939 47.1254C16.2739 47.1254 14.2166 45.0674 14.2166 42.5477C14.2166 40.028 16.2746 37.97 18.7943 37.97H23.3692L23.3689 42.5477ZM25.6751 42.5477C25.6751 40.028 27.7331 37.97 30.2528 37.97C32.7725 37.97 34.8306 40.0277 34.8306 42.5477V54.0066C34.8306 56.5263 32.7729 58.5843 30.2528 58.5843C27.7331 58.5843 25.6751 56.5263 25.6751 54.0066V42.5477Z" fill="#DE1C59"/>
<path d="M30.2528 24.1694C27.7331 24.1694 25.6751 22.1145 25.6751 19.5945C25.6751 17.0744 27.7331 15.0171 30.2528 15.0171C32.7725 15.0171 34.8306 17.0751 34.8306 19.5948V24.1698L30.2528 24.1694ZM30.2528 26.4757C32.7725 26.4757 34.8306 28.5337 34.8306 31.0534C34.8306 33.5731 32.7729 35.6311 30.2528 35.6311H18.7939C16.2742 35.6311 14.2166 33.5734 14.2166 31.0534C14.2166 28.5337 16.2746 26.4757 18.7943 26.4757H30.2528Z" fill="#35C5F0"/>
<path d="M48.6311 31.0534C48.6311 28.5337 50.686 26.4757 53.2061 26.4757C55.7261 26.4757 57.7838 28.5337 57.7838 31.0534C57.7838 33.5731 55.7257 35.6311 53.2061 35.6311H48.6311V31.0534ZM46.3249 31.0534C46.3249 33.5731 44.2668 35.6311 41.7472 35.6311C39.2275 35.6311 37.1694 33.5734 37.1694 31.0534V19.5945C37.1694 17.0748 39.2271 15.0171 41.7472 15.0171C44.2668 15.0171 46.3249 17.0751 46.3249 19.5948V31.0534Z" fill="#2EB57D"/>
<path d="M41.7472 49.4316C44.2668 49.4316 46.3249 51.4866 46.3249 54.0066C46.3249 56.5266 44.2668 58.5843 41.7472 58.5843C39.2275 58.5843 37.1694 56.5263 37.1694 54.0066V49.4316H41.7472ZM41.7472 47.1254C39.2275 47.1254 37.1694 45.0674 37.1694 42.5477C37.1694 40.028 39.2271 37.97 41.7472 37.97H53.2061C55.7257 37.97 57.7838 40.0277 57.7838 42.5477C57.7838 45.0674 55.7257 47.1254 53.2061 47.1254H41.7472Z" fill="#EBB02E"/>
</svg>
