<svg width="72" height="73" viewBox="0 0 72 73" fill="none" xmlns="http://www.w3.org/2000/svg">
<rect y="0.800537" width="72" height="72" rx="12" fill="black"/>
<path d="M14.9389 36.5372C14.9379 40.2341 15.9114 43.8438 17.7625 47.0254L14.7619 57.8962L25.9737 54.9792C29.0747 56.6543 32.5491 57.532 36.0799 57.5322H36.0892C47.7449 57.5322 57.2329 48.1212 57.2379 36.5538C57.2401 30.9486 55.0422 25.6778 51.0488 21.7123C47.0562 17.7472 41.7461 15.5624 36.0883 15.5598C24.4312 15.5598 14.9439 24.9704 14.9391 36.5372" fill="url(#paint0_linear_174_23)"/>
<path d="M14.1839 36.5304C14.1827 40.3603 15.1911 44.0991 17.1082 47.3946L14 58.6551L25.6138 55.6336C28.8137 57.3647 32.4166 58.2775 36.0827 58.2788H36.0921C48.166 58.2788 57.9948 48.5293 58 36.5478C58.0021 30.7412 55.7251 25.2809 51.5891 21.1734C47.4525 17.0664 41.9525 14.8029 36.0921 14.8005C24.0162 14.8005 14.1887 24.5488 14.1839 36.5304ZM21.1003 46.8271L20.6667 46.1441C18.8438 43.268 17.8816 39.9445 17.883 36.5318C17.8868 26.5729 26.055 18.4706 36.099 18.4706C40.9631 18.4727 45.5343 20.3541 48.9724 23.7677C52.4105 27.1816 54.3023 31.7197 54.3011 36.5464C54.2966 46.5053 46.1283 54.6086 36.0921 54.6086H36.0849C32.817 54.6069 29.6121 53.7361 26.8171 52.0905L26.1519 51.6991L19.2601 53.4921L21.1003 46.8271Z" fill="url(#paint1_linear_174_23)"/>
<path d="M30.6166 27.446C30.2065 26.5416 29.7749 26.5234 29.3849 26.5075C29.0656 26.4939 28.7005 26.4949 28.3358 26.4949C27.9707 26.4949 27.3776 26.6312 26.8762 27.1743C26.3743 27.718 24.9601 29.0319 24.9601 31.7041C24.9601 34.3763 26.9218 36.959 27.1952 37.3218C27.469 37.6839 30.9821 43.3431 36.5461 45.5203C41.1702 47.3296 42.1112 46.9697 43.1148 46.879C44.1185 46.7886 46.3536 45.5655 46.8096 44.2972C47.2659 43.029 47.2659 41.942 47.1291 41.7148C46.9923 41.4885 46.6272 41.3526 46.0798 41.0811C45.5324 40.8096 42.841 39.4954 42.3393 39.3141C41.8374 39.133 41.4725 39.0426 41.1075 39.5864C40.7424 40.1294 39.6941 41.3526 39.3746 41.7148C39.0554 42.0779 38.7359 42.1231 38.1887 41.8514C37.6409 41.5789 35.878 41.006 33.7864 39.1558C32.1591 37.7161 31.0605 35.9382 30.7412 35.3943C30.4218 34.8513 30.707 34.557 30.9814 34.2863C31.2274 34.0429 31.529 33.6521 31.803 33.335C32.0759 33.0178 32.167 32.7915 32.3496 32.4293C32.5323 32.0667 32.4408 31.7495 32.3042 31.4778C32.167 31.2061 31.1033 28.5199 30.6166 27.446Z" fill="white"/>
<defs>
<linearGradient id="paint0_linear_174_23" x1="2138.56" y1="4249.2" x2="2138.56" y2="15.5598" gradientUnits="userSpaceOnUse">
<stop stop-color="#1FAF38"/>
<stop offset="1" stop-color="#60D669"/>
</linearGradient>
<linearGradient id="paint1_linear_174_23" x1="2214" y1="4400.25" x2="2214" y2="14.8005" gradientUnits="userSpaceOnUse">
<stop stop-color="#F9F9F9"/>
<stop offset="1" stop-color="white"/>
</linearGradient>
</defs>
</svg>
