<svg width="72" height="73" viewBox="0 0 72 73" fill="none" xmlns="http://www.w3.org/2000/svg">
<rect y="0.412598" width="72" height="72" rx="12" fill="black"/>
<path d="M53.0341 27.7997C52.8332 27.0431 52.4371 26.3527 51.8854 25.7974C51.3337 25.2422 50.6458 24.8417 49.8906 24.6359C47.1179 23.8879 36 23.8879 36 23.8879C36 23.8879 24.8821 23.8879 22.1094 24.6359C21.3542 24.8417 20.6663 25.2422 20.1146 25.7974C19.5629 26.3527 19.1668 27.0431 18.9659 27.7997C18.2228 30.59 18.2228 36.4127 18.2228 36.4127C18.2228 36.4127 18.2228 42.2353 18.9659 45.0263C19.1668 45.7828 19.5629 46.4733 20.1146 47.0285C20.6663 47.5837 21.3542 47.9843 22.1094 48.19C24.8821 48.9374 36 48.9374 36 48.9374C36 48.9374 47.1179 48.9374 49.8906 48.19C50.6458 47.9843 51.3337 47.5837 51.8854 47.0285C52.4371 46.4733 52.8332 45.7828 53.0341 45.0263C53.7772 42.2353 53.7772 36.4127 53.7772 36.4127C53.7772 36.4127 53.7772 30.59 53.0341 27.7997Z" fill="#EA5A47"/>
<path d="M32.3639 41.6987L41.6564 36.4126L32.3639 31.1265V41.6987Z" fill="white"/>
<path d="M53.0341 27.7997C52.8332 27.0431 52.4371 26.3527 51.8854 25.7974C51.3337 25.2422 50.6458 24.8417 49.8906 24.6359C47.1179 23.8879 36 23.8879 36 23.8879C36 23.8879 24.8821 23.8879 22.1094 24.6359C21.3542 24.8417 20.6663 25.2422 20.1146 25.7974C19.5629 26.3527 19.1668 27.0431 18.9659 27.7997C18.2228 30.59 18.2228 36.4127 18.2228 36.4127C18.2228 36.4127 18.2228 42.2353 18.9659 45.0263C19.1668 45.7828 19.5629 46.4733 20.1146 47.0285C20.6663 47.5837 21.3542 47.9843 22.1094 48.19C24.8821 48.9374 36 48.9374 36 48.9374C36 48.9374 47.1179 48.9374 49.8906 48.19C50.6458 47.9843 51.3337 47.5837 51.8854 47.0285C52.4371 46.4733 52.8332 45.7828 53.0341 45.0263C53.7772 42.2353 53.7772 36.4127 53.7772 36.4127C53.7772 36.4127 53.7772 30.59 53.0341 27.7997Z" stroke="black" stroke-width="0.5" stroke-miterlimit="10"/>
<path d="M32.3639 41.6987L41.6564 36.4126L32.3639 31.1265V41.6987Z" stroke="black" stroke-width="0.5" stroke-miterlimit="10" stroke-linecap="round" stroke-linejoin="round"/>
</svg>
