<svg width="41" height="37" viewBox="0 0 41 37" fill="none" xmlns="http://www.w3.org/2000/svg">
<path opacity="0.25" fill-rule="evenodd" clip-rule="evenodd" d="M20.4154 36C31.1383 36 39.8308 28.165 39.8308 18.5C39.8308 8.83502 31.1383 1 20.4154 1C9.69258 1 1 8.83502 1 18.5C1 28.165 9.69258 36 20.4154 36Z" stroke="white" stroke-width="1.5"/>
<path d="M15.6198 21.7203C15.6198 22.6938 14.8258 23.489 13.8521 23.489C12.8785 23.489 12.0836 22.6938 12.0836 21.7203C12.0836 20.7468 12.8788 19.9517 13.8523 19.9517H15.6199L15.6198 21.7203ZM16.5108 21.7203C16.5108 20.7468 17.3059 19.9517 18.2795 19.9517C19.253 19.9517 20.0481 20.7467 20.0481 21.7203V26.1476C20.0481 27.1211 19.2531 27.9163 18.2795 27.9163C17.3059 27.9163 16.5108 27.1211 16.5108 26.1476V21.7203Z" fill="white"/>
<path d="M18.2795 14.6201C17.3059 14.6201 16.5108 13.8262 16.5108 12.8525C16.5108 11.8789 17.3059 11.084 18.2795 11.084C19.253 11.084 20.0481 11.8791 20.0481 12.8526V14.6203L18.2795 14.6201ZM18.2795 15.5112C19.253 15.5112 20.0481 16.3063 20.0481 17.2798C20.0481 18.2533 19.2531 19.0485 18.2795 19.0485H13.8521C12.8786 19.0485 12.0836 18.2535 12.0836 17.2798C12.0836 16.3063 12.8788 15.5112 13.8523 15.5112H18.2795Z" fill="white"/>
<path d="M25.3801 17.2798C25.3801 16.3063 26.1741 15.5112 27.1478 15.5112C28.1214 15.5112 28.9164 16.3063 28.9164 17.2798C28.9164 18.2533 28.1213 19.0485 27.1478 19.0485H25.3801V17.2798ZM24.4891 17.2798C24.4891 18.2533 23.694 19.0485 22.7204 19.0485C21.7469 19.0485 20.9518 18.2535 20.9518 17.2798V12.8525C20.9518 11.879 21.7468 11.084 22.7204 11.084C23.694 11.084 24.4891 11.8791 24.4891 12.8526V17.2798Z" fill="white"/>
<path d="M22.7204 24.38C23.694 24.38 24.4891 25.174 24.4891 26.1476C24.4891 27.1213 23.694 27.9163 22.7204 27.9163C21.7469 27.9163 20.9518 27.1211 20.9518 26.1476V24.38H22.7204ZM22.7204 23.489C21.7469 23.489 20.9518 22.6938 20.9518 21.7203C20.9518 20.7468 21.7468 19.9517 22.7204 19.9517H27.1478C28.1213 19.9517 28.9164 20.7467 28.9164 21.7203C28.9164 22.6938 28.1213 23.489 27.1478 23.489H22.7204Z" fill="white"/>
</svg>
