<svg width="40" height="37" viewBox="0 0 40 37" fill="none" xmlns="http://www.w3.org/2000/svg">
<path opacity="0.25" fill-rule="evenodd" clip-rule="evenodd" d="M20.1244 36C30.549 36 38.9998 28.165 38.9998 18.5C38.9998 8.83502 30.549 1 20.1244 1C9.69973 1 1.2489 8.83502 1.2489 18.5C1.2489 28.165 9.69973 36 20.1244 36Z" stroke="white" stroke-width="1.5"/>
<path d="M14.9528 21.8167C14.9528 22.7765 14.17 23.5605 13.21 23.5605C12.25 23.5605 11.4662 22.7765 11.4662 21.8167C11.4662 20.8568 12.2502 20.0728 13.2101 20.0728H14.953L14.9528 21.8167ZM15.8314 21.8167C15.8314 20.8568 16.6154 20.0728 17.5753 20.0728C18.5352 20.0728 19.3192 20.8566 19.3192 21.8167V26.182C19.3192 27.1418 18.5353 27.9259 17.5753 27.9259C16.6154 27.9259 15.8314 27.1418 15.8314 26.182V21.8167Z" fill="white"/>
<path d="M17.5753 14.8152C16.6154 14.8152 15.8314 14.0324 15.8314 13.0724C15.8314 12.1124 16.6154 11.3286 17.5753 11.3286C18.5352 11.3286 19.3192 12.1126 19.3192 13.0725V14.8154L17.5753 14.8152ZM17.5753 15.6938C18.5352 15.6938 19.3192 16.4778 19.3192 17.4377C19.3192 18.3976 18.5353 19.1816 17.5753 19.1816H13.21C12.2501 19.1816 11.4662 18.3977 11.4662 17.4377C11.4662 16.4778 12.2502 15.6938 13.2101 15.6938H17.5753Z" fill="white"/>
<path d="M24.5766 17.4377C24.5766 16.4778 25.3594 15.6938 26.3194 15.6938C27.2794 15.6938 28.0633 16.4778 28.0633 17.4377C28.0633 18.3976 27.2793 19.1816 26.3194 19.1816H24.5766V17.4377ZM23.698 17.4377C23.698 18.3976 22.914 19.1816 21.9541 19.1816C20.9942 19.1816 20.2102 18.3977 20.2102 17.4377V13.0724C20.2102 12.1125 20.9941 11.3286 21.9541 11.3286C22.914 11.3286 23.698 12.1126 23.698 13.0725V17.4377Z" fill="white"/>
<path d="M21.9541 24.4391C22.914 24.4391 23.698 25.2219 23.698 26.182C23.698 27.142 22.914 27.9259 21.9541 27.9259C20.9942 27.9259 20.2102 27.1418 20.2102 26.182V24.4391H21.9541ZM21.9541 23.5605C20.9942 23.5605 20.2102 22.7765 20.2102 21.8167C20.2102 20.8568 20.9941 20.0728 21.9541 20.0728H26.3194C27.2793 20.0728 28.0633 20.8566 28.0633 21.8167C28.0633 22.7765 27.2793 23.5605 26.3194 23.5605H21.9541Z" fill="white"/>
</svg>
